<svg width="1366" height="1291" viewBox="0 0 1366 1291" fill="none" xmlns="http://www.w3.org/2000/svg">
<g clip-path="url(#clip0_37_7)">
<g filter="url(#filter0_d_37_7)">
<path d="M392.4 1032C351.333 1032 314.3 1022.47 281.3 1003.4C249.033 983.6 223.367 956.833 204.3 923.1C185.967 888.633 176.8 850.133 176.8 807.6V757C176.8 754.067 178.267 752.6 181.2 752.6H305.5C308.433 752.6 309.9 754.433 309.9 758.1V807.6C309.9 834.733 317.6 856.733 333 873.6C348.4 890.467 368.2 898.9 392.4 898.9C414.4 898.9 433.467 889.733 449.6 871.4C465.733 853.067 473.8 831.8 473.8 807.6V260.9C473.8 257.967 475.267 256.5 478.2 256.5H601.4C604.333 256.5 605.8 258.333 605.8 262L606.9 807.6C606.9 847.933 597 885.333 577.2 919.8C558.133 953.533 532.467 980.667 500.2 1001.2C467.933 1021.73 432 1032 392.4 1032ZM694.427 1021C691.494 1021 690.027 1019.17 690.027 1015.5L692.227 260.9C692.227 257.233 693.694 255.4 696.627 255.4H819.827C822.761 255.4 824.227 257.233 824.227 260.9V521.6L996.927 259.8C999.127 256.867 1001.69 255.4 1004.63 255.4H1131.13C1134.06 255.4 1134.79 256.867 1133.33 259.8L943.027 563.4L1156.43 1016.6C1157.89 1019.53 1156.06 1021 1150.93 1021H1016.73C1013.06 1021 1010.86 1019.53 1010.13 1016.6L861.627 693.2L823.127 753.7V1015.5C823.127 1019.17 821.661 1021 818.727 1021H694.427Z" fill="#2F8285"/>
</g>
</g>
<defs>
<filter id="filter0_d_37_7" x="172.8" y="255.4" width="989.827" height="784.6" filterUnits="userSpaceOnUse" color-interpolation-filters="sRGB">
<feFlood flood-opacity="0" result="BackgroundImageFix"/>
<feColorMatrix in="SourceAlpha" type="matrix" values="0 0 0 0 0 0 0 0 0 0 0 0 0 0 0 0 0 0 127 0" result="hardAlpha"/>
<feOffset dy="4"/>
<feGaussianBlur stdDeviation="2"/>
<feComposite in2="hardAlpha" operator="out"/>
<feColorMatrix type="matrix" values="0 0 0 0 0 0 0 0 0 0 0 0 0 0 0 0 0 0 0.25 0"/>
<feBlend mode="normal" in2="BackgroundImageFix" result="effect1_dropShadow_37_7"/>
<feBlend mode="normal" in="SourceGraphic" in2="effect1_dropShadow_37_7" result="shape"/>
</filter>
<clipPath id="clip0_37_7">
<rect width="1366" height="1291" fill="white"/>
</clipPath>
</defs>
</svg>
